<?xml version="1.0" encoding="UTF-8" standalone="no"?>
<svg
   xmlns:dc="http://purl.org/dc/elements/1.1/"
   xmlns:cc="http://creativecommons.org/ns#"
   xmlns:rdf="http://www.w3.org/1999/02/22-rdf-syntax-ns#"
   xmlns:svg="http://www.w3.org/2000/svg"
   xmlns="http://www.w3.org/2000/svg"
   xmlns:sodipodi="http://sodipodi.sourceforge.net/DTD/sodipodi-0.dtd"
   xmlns:inkscape="http://www.inkscape.org/namespaces/inkscape"
   width="100"
   height="100"
   viewBox="0 0 3300 1600"
   version="1.1"
   xml:space="preserve"
   style="fill-rule:evenodd;clip-rule:evenodd;stroke-linejoin:round;stroke-miterlimit:1.5;"
   id="svg3831"
   sodipodi:docname="favicon.svg"
   inkscape:version="0.92.5 (2060ec1f9f, 2020-04-08)"><metadata
   id="metadata3837"><rdf:RDF><cc:Work
       rdf:about=""><dc:format>image/svg+xml</dc:format><dc:type
         rdf:resource="http://purl.org/dc/dcmitype/StillImage" /></cc:Work></rdf:RDF></metadata><defs
   id="defs3835" /><sodipodi:namedview
   pagecolor="#ffffff"
   bordercolor="#666666"
   borderopacity="1"
   objecttolerance="10"
   gridtolerance="10"
   guidetolerance="10"
   inkscape:pageopacity="0"
   inkscape:pageshadow="2"
   inkscape:window-width="1430"
   inkscape:window-height="841"
   id="namedview3833"
   showgrid="false"
   inkscape:zoom="8"
   inkscape:cx="35.724869"
   inkscape:cy="57.259032"
   inkscape:window-x="2017"
   inkscape:window-y="124"
   inkscape:window-maximized="0"
   inkscape:current-layer="g3829" />
  <g
   id="g3829"
   transform="translate(7.875895,3.9379475)">
[attr.fill]=&quot;fillColor.nTip&quot;/&gt;
[attr.fill]=&quot;fillColor.N&quot;/&gt;
<path
   d="m 6869.2355,1461.3908 -453.6332,-0.8005 c 75.3892,-72.0064 -155.1347,-172.7804 -371.5545,-110.83 9.1938,31.2022 157.1703,-25.5556 176.0912,-6.5391 5.6284,5.6577 -262.0424,-33.0894 -115.7579,117.9481 -2321.2319,3.0997 -2581.838,3.2036 -3736.1596,-13.6875 -0.7585,0 -1.517,-0.055 -2.2719,-0.1615 -4.3564,-0.6158 -8.8875,-0.9086 -13.5826,-0.9086 h -8.9542 c -73.5306,0 -135.5846,-28.2764 -186.4073,-84.1729 -50.9505,-56.0379 -76.6744,-124.4815 -76.6744,-205.555 l -0.085,-514.34177 c 0,-123.81315 -38.2814,-228.06867 -115.5972,-312.42331 -77.6239,-84.69385 -173.113,-126.5794 -286.1356,-126.5794 -89.4752,0 -167.9747,26.17645 -235.2914,79.17952 -5.5238,4.34928 -12.7412,4.92272 -18.7587,1.49014 -6.0175,-3.43258 -9.8496,-10.30986 -9.9613,-17.87566 -0.3027,-20.31078 -7.5777,-39.72303 -20.3334,-54.11361 -12.9877,-14.65106 -30.6006,-22.89329 -48.9702,-22.89329 h -0.023 c -18.3678,0 -35.9807,8.24223 -48.9687,22.89329 -13.0314,14.70153 -20.3442,34.6428 -20.3442,55.43212 v 949.16477 c 0,20.7893 7.3128,40.7306 20.3442,55.4301 12.988,14.6531 30.6009,22.8933 48.9687,22.8933 h 0.023 c 18.3696,0 35.9825,-8.2402 48.9705,-22.8933 12.7467,-14.3784 20.0217,-33.7745 20.3316,-54.0712 0.013,-0.7552 0.061,-1.5103 0.1477,-2.2594 0.5333,-4.6502 0.7838,-9.4921 0.7838,-14.5158 V 642.34203 c 0,-81.59444 26.0247,-149.81393 77.3014,-205.00981 50.664,-54.53764 112.4803,-82.26077 185.7803,-82.26077 71.7037,0 133.1092,28.01389 184.1696,84.17291 51.1956,56.30643 76.6745,124.04939 76.6745,202.68576 l 2.3223,398.62748 v 116.1221 c 0,125.4124 37.867,230.625 114.7108,315.1411 71.783,78.9494 159.9645,120.5381 264.1772,125.7556 0.6864,0.034 1.3692,0.1111 2.0484,0.2322 5.1798,0.9228 10.6315,1.3508 16.341,1.3508 l 1583.3009,9.2745 2165.0416,-6.3022 c 7.7651,0 14.6762,5.5244 17.2201,13.7464 2.5421,8.2241 0.1604,17.3507 -5.9364,22.7419 -9.7001,8.5774 -19.8217,15.4345 -29.2713,23.2688 -11.1739,9.2619 -21.3027,20.1473 -27.0662,40.2097 -3.715,12.9327 0.9153,26.97 11.2099,34.4388 10.5576,7.6608 24.4555,6.7117 34.0475,-2.3563 z"
   id="path3803"
   inkscape:connector-curvature="0"
   sodipodi:nodetypes="cccccccssccccscsccsscsscsscccsscsccccccccccccccccc"
   style="stroke-width:1.90730691" />[attr.fill]=&quot;fillColor.n&quot;/&gt;
<path
   d="m 1103.3549,2.4698353 c 20.5685,0 38.1472,7.6909197 52.9695,22.5115197 14.8222,14.82232 22.5131,32.401075 22.5131,52.969698 0,20.570347 -7.6909,38.147387 -22.5131,52.969707 -14.8223,14.82232 -32.401,22.51324 -52.9695,22.51324 -20.5685,0 -38.1472,-7.69092 -52.9695,-22.51324 -14.8222,-14.82232 -22.5131,-32.39936 -22.5131,-52.969707 0,-20.568623 7.6909,-38.147378 22.5131,-52.969698 14.8223,-14.8206 32.401,-22.5115197 52.9695,-22.5115197 z"
   id="path3805"
   inkscape:connector-curvature="0"
   style="stroke-width:1.71633649;fill:none;stroke:none" />[attr.fill]=&quot;fillColor.iDot&quot; style=&quot;fill-rule:nonzero;&quot;/&gt;
[attr.fill]=&quot;fillColor.e&quot; style=&quot;fill-rule:nonzero;&quot;/&gt;
[attr.fill]=&quot;fillColor.e1&quot;  style=&quot;fill-rule:nonzero;&quot;/&gt;
[attr.fill]=&quot;fillColor.e2&quot; style=&quot;fill-rule:nonzero;&quot;/&gt;
<path
   d="m 1189.2513,280.3806 c 0,219.36743 0,740.9642 0,960.3317 0,21.069 -8.6347,41.2766 -24.0015,56.1747 -15.3667,14.8982 -36.21,23.2696 -57.942,23.2696 -0.011,0 -0.019,0 -0.03,0 -21.732,0 -42.5753,-8.3714 -57.9421,-23.2696 -15.3668,-14.8981 -24.0015,-35.1057 -24.0015,-56.1747 0,-219.3675 0,-740.96427 0,-960.3317 0,-21.06919 8.6347,-41.27676 24.0015,-56.17488 15.3668,-14.89812 36.2101,-23.26946 57.9421,-23.26946 0.011,0 0.019,0 0.03,0 21.732,0 42.5753,8.37134 57.942,23.26946 15.3668,14.89812 24.0015,35.10569 24.0015,56.17488 z"
   id="path3813"
   inkscape:connector-curvature="0"
   style="stroke-width:2.08842635" />[attr.fill]=&quot;fillColor.i&quot; /&gt;
<path
   d="m 70.045305,1244.1993 c 0,-37.4238 -3.6102,-998.1829 -3.6102,-1279.942392 0,-17.675566 8.13481,-34.625824 22.61736,-47.124457 14.482545,-12.496997 34.123345,-19.519091 54.604545,-19.519091 1.32418,0 2.64837,0 3.97065,0 42.50288,0 77.01512,29.64046 77.22191,66.319378 0.70193,120.696765 2.58197,340.261072 7.16918,427.677822 0.97891,18.6628 2.19306,31.67553 3.4167,37.08167 1.11171,4.90187 3.17766,7.78832 4.34818,9.12593 11.26315,12.87519 28.28973,19.69427 48.23026,19.3046 24.38357,-0.47807 54.4357,-12.62141 80.06377,-39.71107 86.88581,-91.83727 223.85912,-232.92739 291.36023,-302.28711 18.88954,-19.412657 50.01924,-26.271027 77.37748,-17.046857 0.32251,0.10811 0.63743,0.21448 0.95235,0.31926 20.04488,6.756857 35.24453,21.247997 41.044,39.131487 5.79947,17.88349 1.52338,37.0784 -11.54392,51.8315 -74.44264,85.14427 -188.8005,214.64771 -240.4228,265.8767 -4.78262,4.7447 -5.97779,11.44099 -3.06952,17.20732 2.90637,5.76796 9.39639,9.57781 16.67939,9.79392 118.28868,3.51023 218.86024,39.09056 301.42441,107.36806 86.66763,71.66985 129.60875,160.23598 129.60875,265.42976 0,0.0946 2.747,407.74457 2.747,407.74457 0,68.3675 28.63497,126.1716 85.39847,173.4909 56.5168,47.113 125.5205,70.9593 207.2878,70.9593 h 10.0129 c 23.9739,0 44.1042,5.064 59.2867,17.7214 14.9416,12.4544 20.982,28.9709 20.982,48.6373 0,19.1163 -5.6021,35.1006 -20.1245,46.8887 -15.3988,12.4986 -35.8326,17.3824 -60.1442,17.3824 0,0 -10.0129,0 -10.0129,0 -128.1782,0 -235.7255,-35.4362 -322.10666,-107.445 -86.13644,-71.804 -128.61275,-161.1805 -128.61275,-267.73 0,0 -0.002,-98.306 -0.002,-98.306 0,-0.08 0,-0.1587 -0.002,-0.239 l -5.2512,-309.57943 c 0.002,-66.27179 -28.36181,-123.48005 -85.39466,-171.02361 -56.77865,-47.33238 -125.05378,-70.95929 -204.78556,-70.95929 -81.51697,0 -150.2588,23.37805 -206.5992,69.34662 -57.12392,46.60549 -86.08901,104.21635 -86.08901,173.11114 v 389.16357 c 0,18.0832 -8.32263,35.4265 -23.14097,48.2149 -14.81643,12.7868 -34.91253,19.9709 -55.86802,19.9709 -0.004,0 -0.01,0 -0.0152,0 -43.63544,0 -79.008985,-30.5278 -79.008985,-68.1858 z"
   id="path3815"
   inkscape:connector-curvature="0"
   style="stroke-width:1.76238811" />[attr.fill]=&quot;fillColor.K&quot;  style=&quot;fill-rule:nonzero;&quot;/&gt;
[attr.fill]=&quot;fillColor.r1&quot; style=&quot;stroke:#00533a;stroke-width:0.83px;&quot;/&gt;
[attr.fill]=&quot;fillColor.r2&quot; style=&quot;stroke:#00533a;stroke-width:0.83px;&quot;/&gt;
[attr.fill]=&quot;fillColor.s&quot; style=&quot;fill-rule:nonzero;stroke:#00533a;stroke-width:3.81px;stroke-miterlimit:2;&quot;/&gt;
<path
   d="m 3175.4825,-9.663782 c 0.2273,-1.12313 0.5375,-2.23769 0.9282,-3.33724 15.9816,-45.16742 -8.5828,-94.432968 -56.04,-110.126788 -22.9851,-7.6883 -46.2496,-14.39707 -69.7912,-20.12632 -60.349,-14.68857 -131.684,-21.90533 -213.9764,-21.90533 -104.8585,0 -199.3585,19.35685 -283.4267,58.38134 -84.3618,39.163808 -156.4733,92.450348 -216.3441,159.846738 -60.3182,67.900082 -106.388,147.310112 -138.3749,238.148642 -32.2617,91.61656 -48.338,189.25603 -48.338,292.90552 0,111.20278 16.0598,213.15258 48.364,305.82368 31.9727,91.7152 77.0741,170.64514 135.5362,236.68044 57.8488,65.3409 127.4316,116.1818 208.7817,152.4821 81.3454,36.3003 172.6704,54.2939 273.8993,54.2939 89.715,0 169.3746,-9.075 238.9504,-27.4567 31.8994,-8.4299 62.6504,-18.2058 92.0187,-28.8648 44.3793,-16.7398 66.8767,-63.2983 52.8649,-106.3266 -0.5019,-0.9538 -0.9375,-1.9398 -1.3093,-2.9514 -8.0973,-22.0661 -25.187,-40.1369 -47.5471,-49.8529 -21.8227,-9.4823 -46.7682,-10.0974 -68.7353,-1.8197 -18.7873,7.3261 -37.1318,13.6469 -55.0336,18.9732 -53.7718,15.996 -118.4702,24.1901 -194.1498,24.1901 -73.7523,0 -140.2951,-15.5587 -199.7065,-46.4127 -58.597,-30.4295 -109.1866,-72.4547 -151.6196,-126.21714 -41.6399,-52.755 -73.9465,-113.9334 -96.747,-183.6104 -22.5732,-68.9717 -33.9308,-143.84639 -33.9308,-224.64104 0,-88.7573 12.4254,-167.63363 36.9804,-236.66756 24.9218,-70.06276 59.4564,-129.54794 103.3195,-178.59272 44.616,-49.88499 97.8834,-88.024272 159.7383,-114.494992 61.7885,-26.44072 128.1206,-39.70823 199.0247,-39.70823 61.8241,0 117.6509,6.59946 167.5089,19.61405 14.7007,3.83879 29.7448,8.32703 44.3674,13.42398 22.3672,7.20818 46.8297,5.64137 67.9942,-4.31676 20.7737,-9.77167 36.7009,-26.76437 44.7935,-47.33437 z m 58.5876,1195.409382 v 0.081 c -2.685,0.6602 -4.6951,0.896 -6.1938,0.9195 -2.067,0.032 -3.1585,-0.3365 -3.703,-0.5551 3.2839,0.3472 6.627,0.2036 9.8873,-0.4458 z M 3181.4822,12.142948 c -1.4822,-1.66969 -2.6044,-3.28151 -3.4615,-4.83118 -0.9518,-1.72542 -1.5745,-3.37153 -1.9841,-4.92977 1.0465,3.50871 2.879,6.83524 5.4456,9.76095 l 0.5232,0.58086 c -0.1776,-0.19291 -0.3528,-0.38581 -0.5232,-0.58086 z"
   id="path3823"
   inkscape:connector-curvature="0"
   sodipodi:nodetypes="ccccscscscccscccccccscccscccscccccccccccccccc" />[attr.fill]=&quot;fillColor.C&quot;  style=&quot;fill-rule:nonzero;&quot;/&gt;
[attr.fill]=&quot;fillColor.a&quot; style=&quot;fill-rule:nonzero;stroke:#00533a;stroke-width:0.83px;stroke-miterlimit:2;&quot;/&gt;
[attr.fill]=&quot;fillColor.ct&quot;/&gt;<path
   style="fill:#0b280b;stroke-width:0.11933174"
   d="m 36.789976,75.36243 c -5.55415,-0.548688 -10.005295,-3.799645 -11.345104,-8.286058 -0.320107,-1.071896 -0.32092,-1.084663 -0.417705,-6.563246 -0.172909,-9.787637 -0.174138,-9.816758 -0.450515,-10.68019 -0.764938,-2.389749 -3.190788,-4.449424 -6.064376,-5.148979 -0.817099,-0.198918 -1.402769,-0.254745 -2.605355,-0.24835 -1.891786,0.01006 -2.96135,0.256551 -4.587665,1.057262 -0.934185,0.459944 -1.302504,0.730711 -2.1524111,1.582327 -0.6533547,0.654669 -1.1453808,1.27124 -1.3561575,1.699436 C 7.1436371,50.129759 7.1390456,50.186971 7.136789,57.171838 7.135539,61.027956 7.087521,63.785605 7.0172076,64.038706 6.8760999,64.546641 6.2864049,65.145946 5.6780572,65.39968 4.4099925,65.928574 2.7604051,65.185621 2.4753848,63.957236 2.414738,63.69586 2.3672301,54.995319 2.3656153,43.854162 l -0.00285,-19.642257 0.2684964,-0.396587 c 0.9725641,-1.436542 3.6580501,-1.184972 4.2581609,0.398894 0.078693,0.207695 0.1284847,1.597058 0.1304348,3.639619 0.00458,4.798871 0.1976277,10.786881 0.359187,11.141466 0.3618265,0.794122 1.709511,0.993223 2.8722726,0.424338 0.533386,-0.260962 1.138602,-0.817887 3.041416,-2.79874 5.251598,-5.466981 7.030221,-7.265564 7.437769,-7.521238 0.5547,-0.347989 1.505285,-0.363089 2.150052,-0.03415 0.866725,0.44217 1.206059,1.455284 0.740672,2.211347 -0.261552,0.424917 -2.480713,2.955571 -4.902278,5.590387 -2.016044,2.193584 -2.752364,3.045327 -2.752364,3.183814 0,0.292109 0.417593,0.450575 1.396049,0.529766 3.742417,0.302894 6.63066,1.553065 9.085241,3.932527 1.591479,1.542774 2.426988,2.965939 2.906063,4.950041 0.231942,0.960591 0.252913,1.504296 0.329554,8.543775 l 0.08185,7.5179 0.302293,0.796982 c 0.432679,1.140737 0.951857,1.888272 1.975172,2.843935 0.642773,0.60028 1.205437,0.988874 1.98664,1.372037 1.42612,0.699485 2.179225,0.884102 4.172403,1.022827 2.445746,0.170225 3.061677,0.585117 3.062618,2.062984 3.58e-4,0.650323 -0.03143,0.732046 -0.447048,1.147366 -0.688461,0.687965 -1.637713,0.827317 -4.027446,0.591239 z"
   id="path3839"
   inkscape:connector-curvature="0"
   transform="matrix(33,0,0,33,-7.875895,-853.93795)" /><path
   style="fill:#0b280b;stroke-width:0.11933174"
   d="m 37.147971,75.417817 c -0.196897,-0.0272 -0.78745,-0.107676 -1.312339,-0.178846 -1.227039,-0.166372 -3.497026,-0.912592 -4.690502,-1.541922 -2.063679,-1.088196 -3.872302,-2.810382 -4.831414,-4.600508 -1.20835,-2.255318 -1.207949,-2.251981 -1.333962,-11.089381 -0.07598,-5.328392 -0.148275,-7.056923 -0.326923,-7.816229 -0.238171,-1.012288 -0.933773,-2.157244 -1.884957,-3.102626 -1.301046,-1.293108 -2.744228,-2.077446 -4.5118,-2.452062 -1.057401,-0.224102 -3.479135,-0.22093 -4.557789,0.006 -2.865903,0.602862 -5.2559624,2.500377 -6.2301364,4.94623 C 7.209834,50.236989 7.2030513,50.391548 7.1379767,57.112167 7.0634313,64.810899 7.1108683,64.42036 6.1672535,65.103912 5.2446134,65.772268 4.00395,65.692641 3.0850424,64.906091 2.8168689,64.676544 2.559143,64.326353 2.5026195,64.114711 2.4468558,63.905918 2.3891419,54.847465 2.3743665,43.984821 L 2.3475021,24.234559 2.627809,23.817757 c 0.7559204,-1.124015 2.7399052,-1.253467 3.7955805,-0.247655 0.4218523,0.401927 0.4528098,0.481071 0.5173005,1.322499 0.037728,0.492244 0.1010302,3.257757 0.1406722,6.145585 0.039642,2.887828 0.1123915,5.857449 0.1616657,6.599158 0.08106,1.220161 0.1182248,1.377195 0.3903412,1.649312 0.6602647,0.660265 1.948971,0.602661 3.0229559,-0.135121 0.328162,-0.225435 1.558119,-1.418221 2.733237,-2.650636 3.875623,-4.064594 7.117426,-7.287911 7.523512,-7.480611 0.401217,-0.190391 1.221473,-0.233351 1.686786,-0.08835 0.487132,0.151805 0.99716,0.705086 1.13907,1.235666 0.119111,0.445344 0.108321,0.585796 -0.07462,0.971321 -0.170709,0.359743 -3.52434,4.302235 -4.340364,5.102483 -0.29567,0.289953 -1.045982,1.108735 -2.262268,2.468706 -0.943,1.0544 -1.080691,1.260873 -0.973905,1.460405 0.145563,0.271987 0.259922,0.300928 1.877115,0.475049 1.960152,0.211045 4.458055,0.946559 5.482156,1.614234 0.143485,0.09355 0.447358,0.274822 0.67527,0.402834 0.227915,0.128011 0.513262,0.314429 0.634105,0.414261 0.120845,0.09983 0.57995,0.47392 1.020234,0.831304 0.739344,0.600138 1.437574,1.364382 2.282685,2.498504 0.616777,0.827701 1.25927,2.477401 1.450566,3.724555 0.04027,0.26253 0.09685,2.974344 0.125746,6.026253 0.08562,9.044586 0.09987,9.354486 0.471382,10.252531 0.778191,1.881094 2.294625,3.407005 4.280847,4.307601 1.223628,0.554819 1.906413,0.695231 4.336066,0.89169 1.031363,0.0834 1.933658,0.410034 2.225156,0.805524 0.156517,0.212356 0.258822,0.577218 0.292536,1.043303 0.0629,0.869594 -0.09862,1.166684 -0.884799,1.627414 -0.482288,0.28264 -0.696762,0.327082 -1.701362,0.352547 -0.632228,0.01602 -1.310604,0.0069 -1.507502,-0.02031 z"
   id="path3841"
   inkscape:connector-curvature="0"
   transform="matrix(33,0,0,33,-7.875895,-853.93795)" /><path
   style="fill:#17280b;stroke-width:0.11933174"
   d="m 36.525973,75.36516 c -3.252514,-0.405368 -6.139188,-1.715718 -8.251407,-3.745571 -1.070391,-1.028647 -1.797628,-2.023871 -2.345678,-3.210053 -0.815763,-1.765611 -0.813427,-1.73787 -1.011647,-12.013355 -0.09022,-4.677157 -0.143573,-5.783016 -0.305104,-6.324582 -0.63292,-2.12199 -2.467542,-4.002883 -4.847802,-4.97007 -2.13114,-0.86596 -5.486846,-0.856821 -7.646746,0.02083 -2.2355207,0.908373 -4.1363599,2.817134 -4.7504502,4.770247 -0.1094073,0.347969 -0.1691427,2.320672 -0.2204229,7.279237 -0.067694,6.545668 -0.079528,6.819414 -0.3141295,7.266563 -0.3143582,0.599165 -1.2887198,1.146325 -2.0413302,1.146325 -0.9719959,0 -2.0740856,-0.731671 -2.3026808,-1.528736 C 2.4261126,63.838196 2.3748901,55.313329 2.3673314,43.877581 L 2.3542433,24.07629 2.8059999,23.602659 c 0.9310698,-0.976155 2.613232,-0.988766 3.6235067,-0.02716 0.5725969,0.54501 0.5621345,0.431316 0.6537905,7.104696 0.083943,6.111788 0.1864993,8.202365 0.4159414,8.478826 0.5027636,0.605792 1.6479028,0.720149 2.6441125,0.264046 0.656153,-0.300411 0.493485,-0.142043 7.195551,-7.005414 2.855171,-2.923889 3.434252,-3.440814 3.966378,-3.540641 1.058193,-0.198518 2.034679,0.211962 2.360758,0.992378 0.254814,0.609857 0.218944,0.990709 -0.144002,1.528927 -0.380264,0.5639 -2.693604,3.208644 -5.450894,6.231775 -1.201501,1.317344 -1.985223,2.272321 -1.985223,2.419027 0,0.328564 0.309904,0.429984 1.789976,0.585787 3.182124,0.334975 5.588229,1.30973 7.791927,3.156649 1.880674,1.576191 3.139396,3.459828 3.678259,5.504392 0.237935,0.902778 0.256481,1.36642 0.341307,8.532219 0.06437,5.437677 0.131221,7.712362 0.236729,8.054893 0.662656,2.151299 2.622877,4.137863 4.945717,5.012178 1.098906,0.413626 1.679223,0.528798 3.279054,0.650772 2.349608,0.179139 2.996312,0.578978 3.092746,1.912162 0.06171,0.853098 -0.09798,1.162156 -0.844892,1.635226 -0.452784,0.286778 -0.63178,0.322347 -1.757124,0.349169 -0.689141,0.01642 -1.640281,-0.01841 -2.113645,-0.0774 z"
   id="path3843"
   inkscape:connector-curvature="0"
   transform="matrix(33,0,0,33,-7.875895,-853.93795)" /><path
   style="fill:#17280b;stroke-width:0.11933174"
   d="M 36.396625,75.356208 C 32.912331,74.891292 30.069165,73.51407 27.89244,71.236804 26.611496,69.896693 25.840135,68.588168 25.392681,66.996257 25.17056,66.206012 25.135433,65.592629 25.028248,60.632458 24.842569,52.039805 24.756473,50.370994 24.459322,49.604983 23.602463,47.396128 21.332023,45.469414 18.753286,44.762795 17.765033,44.491995 15.356777,44.394032 14.21128,44.578033 11.289123,45.04742 8.7370029,46.849292 7.6427619,49.2156 c -0.4164924,0.90067 -0.4864543,2.10256 -0.5159528,8.86366 -0.020697,4.743739 -0.05613,5.843451 -0.1994288,6.189573 -0.1838424,0.444049 -0.5324604,0.838566 -0.7410064,0.838566 -0.068377,0 -0.1243214,0.04953 -0.1243214,0.110077 0,0.194096 -0.8451611,0.39667 -1.4232181,0.341125 C 3.894919,65.487121 3.0018745,65.027569 2.7306575,64.576673 2.5632032,64.298283 2.4943628,63.860767 2.4386412,62.720764 2.398541,61.900358 2.3581876,52.892964 2.348967,42.704332 L 2.3322022,24.179547 2.6527278,23.759316 c 0.4854328,-0.636435 1.0662424,-0.883224 1.9841446,-0.843074 1.0792698,0.04721 1.275338,0.117278 1.7860531,0.638285 0.5743994,0.585975 0.5510179,0.313116 0.712862,8.318981 0.070321,3.478521 0.1669012,6.537667 0.2146235,6.798103 0.1224895,0.668467 0.6616201,1.018126 1.5698204,1.018126 1.2599326,0 1.4899936,-0.184547 5.9239456,-4.752029 2.209463,-2.276002 4.211639,-4.321198 4.449282,-4.544879 0.237642,-0.223682 0.697425,-0.653276 1.021738,-0.954654 l 0.589661,-0.54796 h 0.910864 c 0.808825,0 0.958915,0.03661 1.339791,0.326845 0.647642,0.493506 0.888361,1.613475 0.461176,2.145664 -0.452604,0.563855 -3.96049,4.553344 -4.90849,5.582383 -2.754195,2.989635 -2.921615,3.234882 -2.353784,3.44794 0.147673,0.05541 0.698091,0.13873 1.223151,0.185158 3.684884,0.325839 6.73329,1.699305 9.061704,4.082771 1.423288,1.45694 2.217694,2.818693 2.703902,4.634967 0.242795,0.906985 0.260138,1.327061 0.347349,8.412888 0.05917,4.807315 0.139774,7.662519 0.226783,8.032979 0.315714,1.344219 1.37601,2.874077 2.661828,3.840645 1.572352,1.181958 3.255564,1.799516 5.220444,1.915346 1.56236,0.0921 2.669089,0.374339 3.057462,0.779712 0.241586,0.252162 0.323603,0.484803 0.376474,1.06787 0.08415,0.928054 -0.124481,1.369721 -0.837055,1.772005 -0.431017,0.24333 -0.693617,0.289551 -1.816505,0.319724 -0.721957,0.0194 -1.704453,-0.01701 -2.183327,-0.0809 z"
   id="path3845"
   inkscape:connector-curvature="0"
   transform="matrix(33,0,0,33,-7.875895,-853.93795)" /><path
   style="fill:#112b00;stroke-width:0.11933174"
   d="m 36.447547,75.369678 c -1.625653,-0.202517 -3.642719,-0.797482 -4.967833,-1.46534 -2.375831,-1.19742 -4.399289,-3.156142 -5.472172,-5.297103 -0.803783,-1.603967 -0.848624,-1.955884 -0.978151,-7.676447 -0.186068,-8.217765 -0.292877,-10.467801 -0.529649,-11.157518 -0.676508,-1.970676 -2.692476,-3.895623 -4.938145,-4.715191 -1.848312,-0.67455 -4.556941,-0.773342 -6.455706,-0.23546 -2.704426,0.766111 -5.0681142,2.861401 -5.6521174,5.010317 -0.2448855,0.901087 -0.314238,2.767182 -0.3286712,8.843686 -0.014053,5.916248 -0.00973,5.886526 -0.9451415,6.505549 C 5.094047,65.900795 3.3442376,65.57556 2.6971065,64.534817 L 2.4224344,64.093079 2.3595516,44.403341 c -0.034585,-10.829355 -0.025645,-19.86945 0.019867,-20.089099 0.2303044,-1.111478 1.7494587,-1.737313 3.2233905,-1.327918 0.6215797,0.172648 1.2439825,0.901191 1.3331923,1.560545 0.039047,0.288602 0.1040528,2.645852 0.1444565,5.238334 0.092252,5.919318 0.2263225,8.95799 0.4104152,9.301971 0.2923082,0.546183 1.4889329,0.764799 2.4012767,0.438698 0.6982252,-0.249567 1.2543942,-0.769473 5.3776912,-5.027065 2.161116,-2.231504 4.310361,-4.404996 4.776099,-4.829983 0.842992,-0.769231 0.850342,-0.772879 1.635512,-0.81182 1.275729,-0.06327 2.006474,0.474922 2.129743,1.568554 0.04478,0.39726 0.0058,0.633812 -0.141641,0.858776 -0.257669,0.393251 -2.116713,2.516513 -4.986522,5.695232 -1.231822,1.364417 -2.326005,2.61251 -2.431515,2.773541 -0.273522,0.417446 -0.138655,0.625887 0.453942,0.701586 2.356783,0.301059 3.398566,0.493073 4.383652,0.807965 4.171741,1.333532 7.295334,4.372908 8.255881,8.033285 0.235693,0.898164 0.256414,1.399504 0.350177,8.472553 0.09385,7.079769 0.113882,7.563605 0.343683,8.302164 0.297958,0.957608 1.013944,2.090824 1.812393,2.868539 1.601101,1.559522 3.57518,2.398043 6.021249,2.557624 1.594402,0.104019 2.584119,0.362737 2.983889,0.780008 0.272946,0.284895 0.343317,0.48227 0.386934,1.08528 0.06637,0.917492 -0.144699,1.356581 -0.846739,1.761517 -0.43867,0.253022 -0.674074,0.294415 -1.816626,0.319432 -0.721957,0.01581 -1.681539,-0.01722 -2.132405,-0.07338 z"
   id="path3847"
   inkscape:connector-curvature="0"
   transform="matrix(33,0,0,33,-7.875895,-853.93795)" /><path
   style="fill:#112b00;stroke-width:0.11933174"
   d="m 36.73031,75.414684 c -1.724931,-0.206626 -3.912218,-0.835803 -5.250596,-1.510346 -2.375831,-1.19742 -4.399289,-3.156142 -5.472172,-5.297103 -0.873424,-1.742937 -0.894509,-1.962097 -1.09827,-11.415278 -0.06625,-3.073661 -0.171677,-5.992446 -0.234277,-6.486191 -0.173738,-1.370311 -0.666297,-2.264317 -1.962823,-3.562575 -1.220088,-1.22172 -2.330309,-1.880365 -3.948042,-2.342203 -0.801623,-0.228851 -1.233333,-0.270611 -2.797543,-0.270611 -2.159102,0 -3.101686,0.208032 -4.706851,1.038818 -1.225165,0.634109 -2.9537825,2.304727 -3.4385344,3.323164 -0.5714282,1.20054 -0.592169,1.462809 -0.6736337,8.518142 -0.086588,7.499013 -0.043922,7.160405 -0.9803027,7.780072 C 5.4377987,65.67331 4.476478,65.712737 3.622531,65.29494 3.1911422,65.083881 2.8791888,64.827649 2.6971065,64.534817 l -0.2746721,-0.441738 -0.0312,-20.00712 -0.0312,-20.007119 0.3245926,-0.385756 c 0.1785259,-0.212166 0.5416113,-0.484335 0.8068564,-0.604819 0.5405161,-0.245522 1.6505657,-0.295361 2.1749725,-0.09765 0.5041842,0.190084 1.1023234,0.825449 1.2249089,1.30114 0.059791,0.232018 0.1431154,2.569822 0.1851657,5.195121 0.093562,5.84131 0.2447239,9.283363 0.4222568,9.615088 0.2756749,0.515102 1.4117337,0.740845 2.2745752,0.451972 0.7561165,-0.253142 1.6411125,-1.070997 5.8368965,-5.39408 2.303358,-2.373242 4.436391,-4.528577 4.740073,-4.789635 0.504483,-0.433674 0.619815,-0.478002 1.335991,-0.51349 1.270545,-0.06296 2.001799,0.476938 2.124872,1.568829 0.04478,0.39726 0.0058,0.633812 -0.141641,0.858776 -0.245237,0.374279 -2.010665,2.395929 -4.839123,5.541442 -2.506424,2.787379 -2.744512,3.072441 -2.744512,3.285988 0,0.214586 0.563616,0.354491 2.361317,0.586145 5.404334,0.69641 9.706868,4.092976 10.891388,8.598034 0.235709,0.896469 0.257501,1.40829 0.357548,8.397578 0.114859,8.024159 0.13386,8.253987 0.780656,9.442364 0.732365,1.345597 2.21237,2.717392 3.68785,3.418214 1.127515,0.535547 2.334396,0.825655 4.105433,0.986859 2.350322,0.213933 2.897978,0.564744 2.9737,1.904851 0.04145,0.733545 0.0173,0.836347 -0.279304,1.188839 -0.551048,0.654883 -0.919021,0.775992 -2.444221,0.804456 -0.754773,0.01409 -1.560262,0.0031 -1.789976,-0.02442 z"
   id="path3849"
   inkscape:connector-curvature="0"
   transform="matrix(33,0,0,33,-7.875895,-853.93795)" /><path
   style="fill:#112b00;stroke-width:0.11933174"
   d="m 32.710545,65.532943 c -0.428497,-0.199506 -0.722098,-0.444184 -0.954654,-0.795579 l -0.335843,-0.507463 -0.03161,-15.171582 -0.03161,-15.171583 0.279434,-0.529287 c 0.415493,-0.787003 1.10676,-1.223858 2.023709,-1.278908 0.986475,-0.05923 1.667454,0.287467 2.175349,1.107488 l 0.357995,0.578001 0.03166,14.906346 c 0.02165,10.197786 -0.0082,15.054357 -0.09452,15.374921 -0.257752,0.957215 -1.323885,1.771258 -2.323769,1.774306 -0.26253,8.35e-4 -0.755792,-0.128197 -1.096138,-0.28666 z"
   id="path3851"
   inkscape:connector-curvature="0"
   transform="matrix(33,0,0,33,-7.875895,-853.93795)" /><path
   style="fill:#0b2822;stroke-width:0.11933174"
   d="m 32.852029,30.274957 c -1.550215,-0.717726 -1.863595,-2.583319 -0.617696,-3.677233 0.374204,-0.328555 1.069216,-0.629806 1.453018,-0.629806 0.71497,0 1.603399,0.594733 1.974206,1.321575 0.602828,1.18164 -0.101955,2.723536 -1.411086,3.087117 -0.613667,0.170432 -0.847474,0.153437 -1.398442,-0.101653 z"
   id="path3853"
   inkscape:connector-curvature="0"
   transform="matrix(33,0,0,33,-7.875895,-853.93795)" /><path
   style="fill:#0b2822;stroke-width:0.11933174;stroke:none"
   d="M 35.894988,75.299366 C 34.502796,75.078309 32.169247,74.313982 31.124113,73.73672 29.962654,73.095206 28.894569,72.272555 27.951681,71.293271 26.948486,70.251352 26.47676,69.581041 25.928344,68.418155 25.119169,66.70235 25.10516,66.551606 24.910872,57.470167 c -0.0667,-3.117542 -0.172681,-6.097852 -0.23552,-6.622912 -0.318742,-2.663286 -2.817994,-5.206144 -5.945745,-6.049481 -1.209551,-0.326132 -4.084518,-0.358669 -5.29643,-0.05994 -2.947402,0.726514 -5.5986959,3.12276 -6.0713281,5.487282 -0.070122,0.350811 -0.1614302,3.510543 -0.2093637,7.245052 -0.095377,7.430854 -0.053525,7.103839 -0.9883393,7.72247 -1.1392359,0.75391 -2.9180953,0.354218 -3.524146,-0.791842 L 2.3627685,63.876543 V 43.976067 24.075591 L 2.685994,23.691459 c 0.177774,-0.211272 0.5402442,-0.48271 0.8054893,-0.603194 0.5405161,-0.245522 1.6505657,-0.295361 2.1749725,-0.09765 0.50413,0.190064 1.1023027,0.825415 1.2250033,1.30114 0.059843,0.232018 0.1427102,2.408724 0.1841501,4.837125 0.098013,5.743626 0.2595853,9.667407 0.409626,9.947762 0.3156705,0.589835 1.591866,0.783013 2.4874406,0.376525 0.7814602,-0.354695 1.4613842,-0.997891 5.9497692,-5.628384 2.288598,-2.361057 4.348264,-4.436181 4.577035,-4.611387 0.547053,-0.418963 1.749931,-0.509883 2.38597,-0.180346 0.900945,0.466789 1.247252,1.652413 0.694254,2.376873 -0.389579,0.510374 -3.215043,3.72798 -5.319642,6.057948 -1.0149,1.123578 -1.92562,2.163963 -2.023823,2.311965 -0.243025,0.366263 -0.04033,0.594308 0.605261,0.680955 2.345842,0.314842 3.269449,0.48896 4.252354,0.801655 3.290053,1.046672 6.14296,3.345914 7.522046,6.062236 0.943666,1.858698 1.030991,2.747244 1.126101,11.458136 0.03619,3.314439 0.11724,6.336692 0.180112,6.716117 0.347949,2.099812 2.450568,4.378929 4.923969,5.337297 1.000519,0.387671 1.781048,0.541954 3.592062,0.710022 2.106368,0.195478 2.716608,0.591454 2.805506,1.820452 0.06615,0.914549 -0.158818,1.381732 -0.853866,1.773167 -0.433589,0.244187 -0.680344,0.283807 -1.929163,0.309751 -0.847876,0.01761 -1.894398,-0.04368 -2.565633,-0.150256 z"
   id="path3855"
   inkscape:connector-curvature="0"
   transform="matrix(33,0,0,33,-7.875895,-853.93795)" /><path
   style="stroke-width:0.11933174;stroke:none;fill:#16502d;fill-opacity:1"
   d="m 32.996057,65.640451 c -0.700387,-0.25705 -1.114999,-0.606816 -1.388125,-1.17102 l -0.250262,-0.516972 0.03119,-15.144486 0.03119,-15.144489 0.330257,-0.486363 c 0.590611,-0.869781 1.759243,-1.294156 2.79545,-1.015134 0.590806,0.159087 1.400083,1.004303 1.596963,1.667882 0.0886,0.29863 0.115871,5.000044 0.08913,15.366361 l -0.03853,14.936087 -0.358733,0.517374 c -0.407797,0.588132 -1.431405,1.178784 -2.019466,1.16529 -0.201537,-0.0046 -0.570114,-0.08316 -0.819061,-0.17453 z"
   id="path3857"
   inkscape:connector-curvature="0"
   transform="matrix(33,0,0,33,-7.875895,-853.93795)" /><path
   style="fill:#165016;stroke-width:0.11933174;stroke:none"
   d="m 32.671219,30.143379 c -0.535054,-0.29514 -0.708012,-0.471749 -0.924821,-0.944349 -0.451036,-0.983166 -0.296188,-1.778914 0.501367,-2.576469 0.233897,-0.233896 0.425266,-0.395247 0.425266,-0.358558 0,0.03669 0.158431,-0.01522 0.352069,-0.115354 0.470374,-0.243239 0.878887,-0.229414 1.412828,0.04781 1.416512,0.735468 1.79317,2.002143 0.985876,3.315431 -0.269051,0.437686 -0.965922,0.833438 -1.636004,0.929083 -0.365065,0.05211 -0.592499,-0.0085 -1.116581,-0.297597 z"
   id="path3859"
   inkscape:connector-curvature="0"
   transform="matrix(33,0,0,33,-7.875895,-853.93795)" /><path
   style="fill:#165016;stroke-width:0.11933174"
   d="m 183.62768,78.353222 c -0.28081,-0.280815 -0.30952,-0.829476 -0.0678,-1.296813 0.0939,-0.181668 0.52354,-0.639985 0.95466,-1.018484 0.79605,-0.698895 0.9051,-0.934432 0.65179,-1.407746 l -0.13204,-0.246733 -34.74266,0.08681 c -36.26983,0.09063 -77.873243,-0.06595 -80.244272,-0.302009 -2.865565,-0.285297 -5.072808,-1.342412 -7.101257,-3.401006 -1.959705,-1.988831 -3.29302,-4.740727 -3.647088,-7.527412 -0.06546,-0.515202 -0.153926,-4.991027 -0.196589,-9.946278 -0.05866,-6.812573 -0.117094,-9.21936 -0.239642,-9.869968 -0.567923,-3.015075 -2.674775,-5.496493 -5.512458,-6.492488 -0.967584,-0.339611 -2.706863,-0.420848 -3.840242,-0.179369 -2.346687,0.499989 -4.385376,2.141319 -5.502054,4.429653 -0.909655,1.864096 -0.870043,1.344066 -0.94535,12.410501 -0.06065,8.912392 -0.08718,9.940395 -0.264894,10.26253 -0.431227,0.781688 -1.375216,1.328657 -2.052339,1.189172 -0.617757,-0.127254 -1.222439,-0.596972 -1.496017,-1.162108 l -0.254476,-0.525678 0.03119,-15.153796 0.03119,-15.153797 0.341985,-0.448345 c 0.667454,-0.875038 1.538596,-1.128375 2.428312,-0.706177 0.564919,0.268072 1.077626,1.004265 1.177069,1.690149 0.169217,1.16713 0.487564,1.246376 1.6899,0.42067 2.606179,-1.789797 6.19249,-2.364444 9.513718,-1.524416 1.087992,0.275183 3.032044,1.268019 4.019726,2.052894 2.699759,2.145399 4.375067,5.166102 4.866789,8.775174 0.08028,0.589227 0.127512,4.153696 0.12808,9.665872 5.97e-4,5.376526 0.04792,9.030502 0.123249,9.508071 0.512836,3.251251 2.751811,6.023153 5.603774,6.937602 0.664859,0.213179 1.244415,0.263366 4.057279,0.351341 8.754274,0.273802 25.624373,0.382637 67.296747,0.43416 l 45.04138,0.05569 -0.42494,-0.518595 c -0.94578,-1.154189 -1.19154,-1.978806 -0.71759,-2.407726 0.26677,-0.241433 1.96108,-0.56726 3.4822,-0.669654 0.7049,-0.04745 1.05673,-0.112222 0.93029,-0.171261 -0.30027,-0.140191 -3.35964,0.129844 -3.86544,0.341183 -0.48629,0.203181 -1.07258,0.239248 -1.17574,0.07233 -0.14271,-0.230908 1.66447,-0.522657 3.5739,-0.576962 2.13701,-0.06078 3.45014,0.105375 5.07377,0.641989 1.03365,0.341628 2.09985,0.987273 2.51939,1.525659 0.32265,0.41403 0.35401,1.04033 0.0679,1.356445 -0.11158,0.12329 -0.20286,0.260209 -0.20286,0.304265 0,0.04406 2.99373,0.08305 6.65274,0.08666 l 6.65274,0.0066 -1.84964,0.655437 c -1.0173,0.360489 -6.17243,2.161616 -11.45584,4.002502 -5.28342,1.840886 -9.76213,3.422463 -9.9527,3.514616 -0.47387,0.229137 -0.74432,0.210389 -1.02583,-0.07111 z"
   id="path3861"
   inkscape:connector-curvature="0"
   transform="matrix(33,0,0,33,-7.875895,-853.93795)" /><path
   style="fill:#005522;stroke-width:0.11933174;stroke:none"
   d="m 183.78683,78.415406 c -0.3227,-0.226023 -0.43249,-0.671419 -0.27052,-1.097425 0.0702,-0.184697 0.49991,-0.719693 0.95485,-1.188881 0.82846,-0.854394 0.95662,-1.139289 0.678,-1.507176 -0.13815,-0.182418 -4.23324,-0.201183 -55.45942,-0.254127 -33.492918,-0.03462 -56.322289,-0.103464 -57.875898,-0.174542 -2.865381,-0.13109 -3.944165,-0.333275 -5.422408,-1.016266 -3.490952,-1.612919 -6.218688,-5.229031 -6.914186,-9.166012 -0.193647,-1.096173 -0.312277,-4.340253 -0.322096,-8.808113 -0.0035,-1.607995 -0.05056,-4.910501 -0.104497,-7.338902 l -0.09807,-4.415275 -0.353961,-1.037891 c -1.041285,-3.053278 -3.48427,-5.284755 -6.258077,-5.716268 -3.610563,-0.561684 -6.882532,1.321432 -8.573089,4.934069 -0.205907,0.440013 -0.42501,1.110088 -0.486895,1.489055 -0.06189,0.378967 -0.162054,4.958124 -0.222597,10.175904 -0.06054,5.217781 -0.144684,9.726386 -0.186981,10.019123 -0.08993,0.622368 -0.379285,1.033967 -0.988635,1.40628 -0.978868,0.59809 -2.090736,0.181814 -2.69178,-1.007782 -0.228232,-0.45172 -0.23842,-2.217688 -0.113658,-19.699611 l 0.0793,-11.111457 0.427861,-0.441683 c 0.864217,-0.892136 1.802435,-0.965349 2.6427,-0.20622 0.444263,0.401365 0.554364,0.625195 0.825684,1.678575 0.205755,0.798826 0.483055,0.790447 1.898718,-0.05737 1.255009,-0.751604 2.879026,-1.361769 4.189637,-1.574104 1.22581,-0.198595 3.262311,-0.152946 4.491226,0.100674 3.987655,0.82296 7.567662,4.222303 8.862831,8.415569 0.628655,2.035349 0.625558,1.982741 0.724144,12.299009 0.09114,9.537541 0.0959,9.676962 0.358217,10.501194 0.505205,1.587423 1.15056,2.648969 2.324912,3.824255 0.87874,0.87944 1.266842,1.171203 2.093086,1.573512 0.557876,0.271637 1.202267,0.520091 1.431981,0.552119 3.073429,0.428521 16.160269,0.548963 68.783541,0.633036 l 47.12482,0.07529 -0.55774,-0.781615 c -0.90352,-1.266175 -1.01004,-1.950128 -0.34617,-2.22289 0.45666,-0.187625 1.93296,-0.45415 3.07431,-0.55502 0.52506,-0.04641 1.02308,-0.139278 1.1067,-0.206387 0.40118,-0.321938 3.16223,0.216043 4.50735,0.878244 1.55022,0.763169 2.14376,1.606624 1.68863,2.399641 -0.10524,0.183367 -0.18042,0.345663 -0.16706,0.360656 0.0134,0.01499 2.95089,0.05527 6.52786,0.0895 l 6.50358,0.06224 -1.90931,0.677762 c -1.05012,0.372768 -5.66825,1.993923 -10.26253,3.602565 -4.59427,1.608642 -8.94391,3.137957 -9.66587,3.398478 -1.77551,0.6407 -1.76324,0.638074 -2.04849,0.438272 z"
   id="path3863"
   inkscape:connector-curvature="0"
   transform="matrix(33,0,0,33,-7.875895,-853.93795)" /><path
   style="fill:#165044;stroke-width:0.11933174;stroke:none"
   d="M 83.031026,66.103644 C 80.350618,65.697197 78.422674,65.132204 76.584643,64.214501 70.829471,61.341024 67.11134,55.892922 65.833191,48.460621 65.51349,46.601588 65.395088,42.529802 65.605362,40.625643 66.736916,30.378716 73.121377,22.983872 82.352469,21.228194 c 1.699153,-0.323165 6.9117,-0.288408 8.793116,0.05863 1.927291,0.355502 3.793482,0.91779 4.355608,1.312356 1.769966,1.242368 1.212219,3.965189 -0.925842,4.519795 -0.651048,0.168879 -0.924967,0.137055 -2.296115,-0.266766 -2.189595,-0.644864 -5.222898,-0.914025 -7.416484,-0.658104 -7.000472,0.81673 -11.82101,5.728857 -13.126891,13.376299 -0.25076,1.468493 -0.336845,4.586867 -0.169652,6.145584 0.66079,6.160472 3.472229,11.010146 7.886138,13.603431 1.809978,1.063408 3.699653,1.588941 6.084646,1.692185 2.718562,0.117684 5.551061,-0.283125 7.689758,-1.088129 1.426945,-0.5371 2.576918,-0.338775 3.387278,0.584173 0.4968,0.565825 0.617475,0.883999 0.617475,1.628056 0,0.758138 -0.249889,1.349907 -0.781911,1.851669 -0.760029,0.716798 -4.420184,1.743152 -7.392314,2.072897 -1.006508,0.111667 -5.368814,0.143065 -6.026253,0.04337 z"
   id="path3865"
   inkscape:connector-curvature="0"
   transform="matrix(33,0,0,33,-7.875895,-853.93795)" /></g></svg>