<?xml version="1.0" encoding="UTF-8" standalone="no"?>
<svg
   xmlns:dc="http://purl.org/dc/elements/1.1/"
   xmlns:cc="http://creativecommons.org/ns#"
   xmlns:rdf="http://www.w3.org/1999/02/22-rdf-syntax-ns#"
   xmlns:svg="http://www.w3.org/2000/svg"
   xmlns="http://www.w3.org/2000/svg"
   xmlns:sodipodi="http://sodipodi.sourceforge.net/DTD/sodipodi-0.dtd"
   xmlns:inkscape="http://www.inkscape.org/namespaces/inkscape"
   width="100"
   height="100"
   viewBox="0 0 3300 1600"
   version="1.1"
   xml:space="preserve"
   style="fill-rule:evenodd;clip-rule:evenodd;stroke-linejoin:round;stroke-miterlimit:1.5;"
   id="svg3831"
   sodipodi:docname="faviconKC.svg"
   inkscape:version="0.92.5 (2060ec1f9f, 2020-04-08)"><metadata
   id="metadata3837"><rdf:RDF><cc:Work
       rdf:about=""><dc:format>image/svg+xml</dc:format><dc:type
         rdf:resource="http://purl.org/dc/dcmitype/StillImage" /><dc:title /></cc:Work></rdf:RDF></metadata><defs
   id="defs3835" /><sodipodi:namedview
   pagecolor="#ffffff"
   bordercolor="#666666"
   borderopacity="1"
   objecttolerance="10"
   gridtolerance="10"
   guidetolerance="10"
   inkscape:pageopacity="0"
   inkscape:pageshadow="2"
   inkscape:window-width="1966"
   inkscape:window-height="841"
   id="namedview3833"
   showgrid="false"
   inkscape:zoom="5.6568543"
   inkscape:cx="10.443511"
   inkscape:cy="55.99832"
   inkscape:window-x="1021"
   inkscape:window-y="27"
   inkscape:window-maximized="0"
   inkscape:current-layer="g3829" />
  <g
   id="g3829"
   transform="translate(7.875895,-25.230207)">
[attr.fill]=&quot;fillColor.nTip&quot;/&gt;
[attr.fill]=&quot;fillColor.N&quot;/&gt;
[attr.fill]=&quot;fillColor.n&quot;/&gt;
<path
   d="m 1103.3549,2.4698353 c 20.5685,0 38.1472,7.6909197 52.9695,22.5115197 14.8222,14.82232 22.5131,32.401075 22.5131,52.969698 0,20.570347 -7.6909,38.147387 -22.5131,52.969707 -14.8223,14.82232 -32.401,22.51324 -52.9695,22.51324 -20.5685,0 -38.1472,-7.69092 -52.9695,-22.51324 -14.8222,-14.82232 -22.5131,-32.39936 -22.5131,-52.969707 0,-20.568623 7.6909,-38.147378 22.5131,-52.969698 14.8223,-14.8206 32.401,-22.5115197 52.9695,-22.5115197 z"
   id="path3805"
   inkscape:connector-curvature="0"
   style="fill:none;stroke:none;stroke-width:1.71633649" />[attr.fill]=&quot;fillColor.iDot&quot; style=&quot;fill-rule:nonzero;&quot;/&gt;
[attr.fill]=&quot;fillColor.e&quot; style=&quot;fill-rule:nonzero;&quot;/&gt;
[attr.fill]=&quot;fillColor.e1&quot;  style=&quot;fill-rule:nonzero;&quot;/&gt;
[attr.fill]=&quot;fillColor.e2&quot; style=&quot;fill-rule:nonzero;&quot;/&gt;
[attr.fill]=&quot;fillColor.i&quot; /&gt;
[attr.fill]=&quot;fillColor.K&quot;  style=&quot;fill-rule:nonzero;&quot;/&gt;
[attr.fill]=&quot;fillColor.r1&quot; style=&quot;stroke:#00533a;stroke-width:0.83px;&quot;/&gt;
[attr.fill]=&quot;fillColor.r2&quot; style=&quot;stroke:#00533a;stroke-width:0.83px;&quot;/&gt;
[attr.fill]=&quot;fillColor.s&quot; style=&quot;fill-rule:nonzero;stroke:#00533a;stroke-width:3.81px;stroke-miterlimit:2;&quot;/&gt;
[attr.fill]=&quot;fillColor.C&quot;  style=&quot;fill-rule:nonzero;&quot;/&gt;
[attr.fill]=&quot;fillColor.a&quot; style=&quot;fill-rule:nonzero;stroke:#00533a;stroke-width:0.83px;stroke-miterlimit:2;&quot;/&gt;
[attr.fill]=&quot;fillColor.ct&quot;/&gt;<path
   style="fill:#0b2822;stroke-width:5.72741032"
   d="M 1578.4177,-3.4605091 C 1500.6249,-36.407479 1484.8988,-122.04693 1547.4205,-172.2627 c 18.7782,-15.08221 53.6553,-28.91104 72.9153,-28.91104 35.8786,0 80.4618,27.30103 99.0695,60.66647 30.2511,54.242801 -5.1162,125.023051 -70.8111,141.7131109 -30.795,7.82363 -42.5279,7.04348 -70.1765,-4.66635 z"
   id="path3853"
   inkscape:connector-curvature="0" /><path
   style="fill:#0b2822;stroke:none;stroke-width:5.37558126"
   d="m 1827.469,2230.0199 c -63.2746,-9.8698 -169.3336,-43.996 -216.8347,-69.7699 -52.7879,-28.6427 -101.3319,-65.373 -144.1859,-109.0967 -45.5949,-46.5202 -67.0347,-76.4487 -91.96,-128.37 -36.7768,-76.6083 -37.4135,-83.3388 -46.2438,-488.8127 -3.0315,-139.1941 -7.8483,-272.2608 -10.7043,-295.704 -14.4867,-118.912 -128.0769,-232.44721 -270.2322,-270.10105 -54.97367,-14.56134 -185.63993,-16.01407 -240.721,-2.67623 -133.95841,32.43785 -254.45887,139.42698 -275.93985,244.99958 -3.18701,15.6632 -7.33694,156.7411 -9.5155,323.4818 -4.33485,331.7775 -2.43269,317.1766 -44.91969,344.7977 -51.7779,33.661 -132.62647,15.8153 -160.17128,-35.3547 L 303.4407,1720.0065 V 831.47747 -57.051564 l 14.6905,-17.15097 c 8.07976,-9.433 24.55392,-21.55234 36.60922,-26.931786 24.56628,-10.96223 75.01767,-13.18747 98.85178,-4.35993 22.91254,8.486086 50.0993,36.853636 55.676,58.094116 2.71984,10.35928 6.48612,107.54623 8.36956,215.971014 4.45466,256.44504 11.79807,431.63649 18.61737,444.15396 14.34711,26.33533 72.34978,34.96046 113.05335,16.81132 35.51711,-15.83664 66.41943,-44.55447 270.4151,-251.29964 104.01602,-105.41797 197.62712,-198.06941 208.02472,-205.89212 24.8634,-18.70613 79.5338,-22.76558 108.4416,-8.0522 40.9476,20.84148 56.6872,73.77798 31.5535,106.12412 -17.7062,22.7875 -146.1226,166.44921 -241.776,270.4791 -46.12677,50.16621 -87.51867,96.61798 -91.98207,103.22607 -11.04531,16.35314 -1.8329,26.53504 27.509,30.40371 106.61767,14.05726 148.59537,21.83139 193.26807,35.7928 149.5318,46.73247 279.1955,149.39048 341.8745,270.67051 42.8893,82.98829 46.8582,122.66069 51.1809,511.59019 1.6448,147.9851 5.3286,282.9247 8.186,299.8654 15.8142,93.7538 111.3776,195.5132 223.7929,238.303 45.4731,17.309 80.948,24.1976 163.258,31.7015 95.7337,8.7279 123.4688,26.4077 127.5092,81.2808 3.0065,40.8333 -7.2181,61.6924 -38.8079,79.1694 -19.7064,10.9027 -30.9213,12.6716 -87.6798,13.8299 -38.5357,0.7863 -86.0998,-1.9502 -116.6072,-6.7087 z"
   id="path3855"
   inkscape:connector-curvature="0" /><path
   style="fill:#165044;stroke:none;stroke-width:4.16775751"
   d="m 2277.4144,1799.991 c -98.3089,-13.5179 -169.0198,-32.3085 -236.4331,-62.8298 -211.0815,-95.5672 -347.4509,-276.7621 -394.3294,-523.9483 -11.7256,-61.8284 -16.0682,-197.2494 -8.356,-260.57858 41.5018,-340.796 275.6638,-586.73638 614.2312,-645.12735 62.3195,-10.74794 253.4994,-9.59198 322.5038,1.94993 70.687,11.82342 139.133,30.5242 159.75,43.64681 64.9168,41.31913 44.4604,131.87569 -33.957,150.32097 -23.8784,5.61664 -33.9248,4.55822 -84.2142,-8.8722 -80.3075,-21.44712 -191.5595,-30.39898 -272.0134,-21.88746 -256.7552,27.1631 -433.5574,190.5324 -481.453,444.87378 -9.1971,48.83967 -12.3545,152.5517 -6.2223,204.3921 24.2357,204.8871 127.3505,366.1795 289.2388,452.4279 66.3842,35.3671 135.6915,52.8455 223.1656,56.2793 99.7083,3.9139 203.5955,-9.4164 282.0361,-36.1895 52.3359,-17.863 94.5133,-11.2671 124.2348,19.4287 18.221,18.8184 22.6469,29.4004 22.6469,54.1465 0,25.2144 -9.1651,44.8957 -28.6779,61.5834 -27.8756,23.8396 -162.1185,57.9745 -271.1269,68.9411 -36.9155,3.714 -196.9111,4.7582 -221.024,1.4426 z"
   id="path3865"
   inkscape:connector-curvature="0" /></g></svg>