<svg xmlns="http://www.w3.org/2000/svg" xmlns:xlink="http://www.w3.org/1999/xlink" width="100%" height="100%" version="1.1" viewBox="0 0 3542 1702" xml:space="preserve" style="fill-rule:evenodd;clip-rule:evenodd;stroke-linejoin:round;stroke-miterlimit:1.5"><g><path d="M1244.55,855.924c0,27.743 15.981,50.267 35.665,50.267c19.684,-0 35.665,-22.524 35.665,-50.267c-7.128,11.107 -20.655,20.125 -35.665,20.125c-15.009,-0 -28.536,-9.018 -35.665,-20.125Z" style="fill:#f4964d"/><path d="M1279.73,127.264l-1.812,0.039c-0.163,0.007 -0.326,0.016 -0.115,-0.002c-0,0 -2.504,0.215 -2.133,0.178c-0.957,0.106 -1.907,0.25 -2.858,0.433c-0.5,0.095 -0.997,0.202 -1.496,0.321c-1.456,0.344 -2.886,0.779 -4.289,1.304c-0.223,0.083 -0.446,0.169 -0.672,0.259c-1.787,0.709 -3.514,1.562 -5.165,2.553c-0.365,0.219 -0.725,0.444 -0.928,0.574c0,0 -1.024,0.685 -0.87,0.58c-0.531,0.364 -1.052,0.743 -1.45,1.049l-0.564,0.443l-1.855,1.587l-0.832,0.787c-0.272,0.266 -0.539,0.537 -0.822,0.835c-0.493,0.516 -0.967,1.046 -1.236,1.363c-0,-0 -1.253,1.551 -1.056,1.302c-0.407,0.525 -0.797,1.061 -1.175,1.613c-0.31,0.452 -0.608,0.911 -0.898,1.381c-1.533,2.488 -2.734,5.158 -3.577,7.952c-0.294,0.974 -0.543,1.963 -0.744,2.949c-0.104,0.513 -0.197,1.028 -0.278,1.551c-0.074,0.475 -0.138,0.953 -0.192,1.442c-0.089,0.791 -0.148,1.588 -0.179,2.391c-0.016,0.423 -0.024,0.846 -0.024,1.25c-0,0 0.884,664.881 0.884,664.901c-0,0.837 0.031,1.671 0.097,2.52l0.197,1.9c-0,-0 0.139,0.938 0.117,0.791c0.17,1.071 0.392,2.132 0.627,3.035c-0,0 0.246,0.911 0.207,0.769l0.462,1.519c0.875,2.887 2.127,5.543 3.851,7.927c0.028,0.039 0.055,0.077 0.082,0.115c0,0 1.099,1.55 0.936,1.324c0.669,0.908 1.386,1.786 2.094,2.571l1.511,1.579c1.084,1.063 2.231,2.049 3.442,2.96c2.534,1.91 5.314,3.462 8.257,4.627c2.246,0.889 4.587,1.552 6.991,1.975c0.936,0.165 1.882,0.293 2.844,0.384c0.69,0.066 1.384,0.111 1.803,0.129l2.185,0.026l1.622,-0.062c0.43,-0.026 0.859,-0.06 0.956,-0.066c-0,0 2.295,-0.275 1.957,-0.231c1.996,-0.285 3.957,-0.737 5.868,-1.349c1.135,-0.363 2.251,-0.783 3.343,-1.258c0.329,-0.143 0.655,-0.29 0.984,-0.445c1.252,-0.589 2.469,-1.252 3.646,-1.987c1.309,-0.816 2.567,-1.72 3.692,-2.648c-0,0 0.469,-0.391 0.398,-0.332c0.649,-0.549 1.28,-1.124 1.891,-1.723c1.024,-1.004 1.977,-2.064 2.799,-3.098c-0,-0 0.377,-0.481 0.319,-0.406c0.434,-0.561 0.849,-1.134 1.244,-1.714c0.33,-0.488 0.648,-0.982 0.954,-1.488c2.03,-3.349 3.462,-7.019 4.225,-10.857c0.243,-1.217 0.418,-2.452 0.523,-3.709c0.078,-0.921 0.117,-1.848 0.118,-2.668l-3.676,-509.139c-0.05,-6.865 4.513,-12.909 11.129,-14.743c6.615,-1.834 13.639,1 17.13,6.911l341.734,578.546l0.914,1.658c2.099,3.757 4.629,7.217 7.5,10.296l0.618,0.676c0,0 1.112,1.157 0.995,1.037c0.882,0.897 1.79,1.745 2.744,2.557c1.089,0.929 2.215,1.787 3.382,2.571l2.843,1.795l2.157,1.225c0.595,0.317 1.196,0.619 1.817,0.914c0.714,0.34 1.436,0.658 2.002,0.891c0,-0 1.231,0.486 1.067,0.422c0.894,0.342 1.792,0.649 2.693,0.923c1.627,0.494 3.261,0.875 4.893,1.142c0.87,0.142 1.74,0.252 2.513,0.32c-0,0 0.619,0.051 0.524,0.044c0.799,0.06 1.595,0.092 2.387,0.093l2.303,-0.078l2.088,-0.204c0.599,-0.08 1.195,-0.179 1.799,-0.298c0.856,-0.168 1.702,-0.375 2.327,-0.556c0,-0 1.201,-0.371 0.993,-0.305c1.29,-0.418 2.55,-0.929 3.771,-1.533c0.004,-0.002 0.008,-0.004 0.012,-0.006c3.003,-1.486 5.67,-3.49 7.923,-5.903c0.538,-0.577 1.053,-1.176 1.555,-1.811c0.958,-1.208 1.826,-2.501 2.6,-3.867c0.48,-0.847 1.041,-1.646 1.674,-2.386c1.146,-1.339 2.164,-2.756 3.045,-4.237c1.841,-3.095 3.082,-6.471 3.63,-9.979c0.107,-0.681 0.187,-1.367 0.244,-2.097c0.054,-0.675 0.08,-1.355 0.08,-2.029l-0.388,-703.628c-0.153,-0.765 -0.24,-1.548 -0.266,-2.342c0,0 -0.036,-1.141 -0.028,-0.932c-0.02,-0.43 -0.05,-0.858 -0.094,-1.312c-0.044,-0.477 -0.103,-0.952 -0.177,-1.442l-0.323,-1.756c-0.266,-1.217 -0.616,-2.414 -1.043,-3.579c-0.073,-0.2 -0.149,-0.398 -0.232,-0.612c-0.246,-0.628 -0.516,-1.247 -0.789,-1.818c0,-0 -0.104,-0.218 -0.087,-0.182c-0.322,-0.666 -0.672,-1.321 -0.98,-1.85c0,-0 -0.176,-0.297 -0.191,-0.322c-0.673,-1.137 -1.429,-2.236 -2.261,-3.291l-1.571,-2.051l-1.429,-1.473l-1.138,-0.936l-3.133,-2.298l-0.868,-0.577c-1.223,-0.786 -2.497,-1.499 -3.544,-2.007c0,0 -2.046,-0.937 -1.733,-0.798c-1.811,-0.78 -3.691,-1.422 -5.624,-1.918c-0.405,-0.104 -0.812,-0.202 -1.25,-0.299c-0.779,-0.176 -1.567,-0.325 -2.246,-0.434c-0,0 -0.617,-0.093 -0.57,-0.086c-1.027,-0.152 -2.064,-0.263 -3.126,-0.335c-0.665,-0.046 -1.332,-0.074 -1.873,-0.084l-0.655,-0.005l-2.522,0.071l-1.166,0.083c-1.163,0.103 -2.316,0.257 -3.36,0.443l-0.551,0.102l-2.708,0.614c-1.203,0.319 -2.386,0.695 -3.55,1.128c-2.209,0.82 -4.328,1.841 -6.245,3.007c-0,-0 -0.511,0.314 -0.424,0.26c-0.531,0.333 -1.055,0.679 -1.575,1.044c-1.179,0.825 -2.305,1.724 -3.369,2.693l-0.034,0.03c-1.951,1.781 -3.645,3.752 -5.052,5.878c-0.272,0.41 -0.533,0.827 -0.786,1.254c-0.435,0.732 -0.836,1.48 -1.203,2.245c-0.277,0.576 -0.534,1.16 -0.685,1.534c-0,-0 -0.501,1.31 -0.406,1.056c-0.19,0.525 -0.365,1.055 -0.526,1.597c-0.108,0.367 -0.209,0.736 -0.303,1.11c-0.231,0.917 -0.413,1.846 -0.546,2.788c-0.085,0.596 -0.149,1.196 -0.194,1.814c-0.048,0.641 -0.071,1.287 -0.071,1.915c-0,-0 0.654,510.296 0.654,510.296c0.008,6.763 -4.457,12.717 -10.952,14.602c-6.495,1.886 -13.455,-0.752 -17.069,-6.468c0,-0 -103.35,-163.482 -197.617,-312.424c-50.35,-79.556 -98.117,-154.978 -126.12,-199.062c-1.985,-3.125 -3.863,-6.079 -5.636,-8.868c-6.745,-10.609 -11.974,-18.817 -15.358,-24.097c-1.291,-2.014 -2.308,-3.595 -2.967,-4.612c-0,0 -1.597,-2.418 -1.525,-2.309c-0.217,-0.322 -0.442,-0.637 -0.675,-0.942c-0.691,-0.906 -1.436,-1.718 -2.261,-2.459l-1.983,-1.6c-5.008,-4.226 -11.119,-6.966 -17.626,-7.948c-1.539,-0.234 -3.099,-0.367 -4.672,-0.398l-0.614,-0.005Z" style="fill:#22a07f"/><path d="M3541.67,1031.87l-121.836,-102.783c-5.339,-4.504 -13.082,-4.963 -18.945,-1.136c-5.717,3.731 -8.257,10.721 -6.14,17.13c5.103,15.453 16.354,22.785 26.856,32.203c3.124,2.802 4.196,7.24 2.694,11.159c-1.501,3.918 -5.264,6.504 -9.46,6.501l-2060.35,-1.466c-0.421,-0 -0.842,-0.027 -1.261,-0.08c-2.418,-0.305 -4.933,-0.45 -7.539,-0.45l-4.97,0c-40.813,0 -75.256,-14.004 -103.465,-41.687c-28.28,-27.753 -42.558,-61.65 -42.558,-101.802c-0,0 -0.047,-254.729 -0.047,-254.73c-0,-61.319 -21.248,-112.952 -64.162,-154.729c-43.085,-41.945 -96.086,-62.689 -158.819,-62.689c-49.663,0 -93.234,12.964 -130.598,39.214c-3.066,2.154 -7.072,2.438 -10.412,0.738c-3.34,-1.7 -5.467,-5.106 -5.529,-8.853c-0.168,-10.059 -4.206,-19.673 -11.286,-26.8c-7.209,-7.256 -16.985,-11.338 -27.181,-11.338c-0.004,0 -0.009,0 -0.013,0c-10.195,0 -19.971,4.082 -27.18,11.338c-7.233,7.281 -11.292,17.157 -11.292,27.453l0,470.078c0,10.296 4.059,20.172 11.292,27.452c7.209,7.257 16.985,11.338 27.18,11.338c0.004,0 0.009,0 0.013,0c10.196,0 19.972,-4.081 27.181,-11.338c7.075,-7.121 11.113,-16.727 11.285,-26.779c0.007,-0.374 0.034,-0.748 0.082,-1.119c0.296,-2.303 0.435,-4.701 0.435,-7.189c0,0 0,-276.777 0,-276.777c0,-40.41 14.445,-74.196 42.906,-101.532c28.121,-27.01 62.432,-40.74 103.117,-40.74c39.799,-0 73.882,13.874 102.223,41.687c28.416,27.886 42.558,61.436 42.558,100.381l1.289,197.422l0.001,57.51c-0,62.111 21.018,114.218 63.67,156.075c39.843,39.1 88.788,59.697 146.631,62.281c0.381,0.017 0.76,0.055 1.137,0.115c2.875,0.457 5.901,0.669 9.07,0.669l2080.51,1.472c4.31,0.003 8.146,2.736 9.558,6.808c1.411,4.073 0.089,8.593 -3.295,11.263c-5.384,4.248 -11.002,7.644 -16.247,11.524c-6.202,4.587 -11.824,9.978 -15.023,19.914c-2.062,6.405 0.508,13.357 6.222,17.056c5.86,3.794 13.574,3.324 18.898,-1.167l122.8,-103.597Z" style="fill:#00533a"/><path d="M646.553,215.119c11.984,-0 22.226,4.481 30.862,13.116c8.636,8.636 13.117,18.878 13.117,30.862c-0,11.985 -4.481,22.226 -13.117,30.862c-8.636,8.636 -18.878,13.117 -30.862,13.117c-11.984,-0 -22.226,-4.481 -30.862,-13.117c-8.636,-8.636 -13.117,-18.877 -13.117,-30.862c0,-11.984 4.481,-22.226 13.117,-30.862c8.636,-8.635 18.878,-13.116 30.862,-13.116Z" style="fill:#00533a;fill-rule:nonzero"/><path d="M2294.38,668.368c2.451,-1.28 4.761,-2.923 6.936,-4.932c6.34,-5.854 9.022,-14.175 9.706,-23.832c4.264,-71.944 -17.526,-134.593 -65.377,-187.945c-47.285,-52.721 -104.581,-80.943 -172.123,-84.172c-67.572,-3.23 -147.291,23.313 -192.456,68.929c-85.519,86.373 -88.14,164.731 -82.599,227.962c6.527,74.479 43.09,135.009 103.282,182.038c59.727,46.665 139.25,67.525 212.594,57.175c66.162,-9.336 125.911,-48.153 172.223,-109.175c0.71,-0.936 1.534,-2.873 2.789,-5.404l0.207,-0.395c9.483,-17.183 4.288,-38.763 -11.975,-49.749c-16.263,-10.987 -38.221,-7.75 -50.622,7.462c-0.171,0.209 -0.349,0.411 -0.536,0.606c-0.028,0.029 -0.059,0.049 -0.077,0.073c-32.948,43.413 -75.846,68.633 -128.601,75.824c-52.821,7.2 -100.486,-5.718 -142.955,-38.9c-35.031,-27.371 -57.933,-61.87 -68.784,-103.454c-0.837,-3.207 -0.051,-6.621 2.105,-9.14c2.156,-2.518 5.408,-3.821 8.706,-3.488c0.603,0.061 1.212,0.114 1.826,0.159c10.284,0.108 251.652,2.619 353.859,1.567c20.437,-0.21 38.473,-1.043 41.872,-1.209Zm-398.929,-74.829c-9.322,-0.121 -9.882,-12.004 -9.882,-12.004c7.31,-38.671 25.122,-66.696 55.225,-94.491c36.908,-34.079 80.063,-49.864 129.411,-47.505c49.34,2.358 90.836,22.185 124.418,59.628c8.11,9.042 15.536,18.715 22.275,29.022c8.839,13.521 9.409,30.943 1.469,45.026c-7.925,14.058 -22.946,22.394 -38.872,21.663c-5.851,-0.026 -231.157,-1.056 -276.231,-1.293c-4.613,-0.024 -7.357,-0.04 -7.813,-0.046Zm0.966,-0.043l0.018,0c-0.095,0.009 -0.191,0.017 -0.287,0.023l0.269,-0.023Z" style="fill:#22a07f;fill-rule:nonzero"/><path d="M1729.1,1458.8c20.438,-0.21 46.633,-4.132 48.808,-6.141c6.34,-5.854 9.023,-14.175 9.706,-23.832c4.264,-71.944 -17.526,-134.593 -65.377,-187.945c-47.285,-52.721 -104.58,-80.943 -172.122,-84.172c-67.573,-3.23 -147.291,23.313 -192.456,68.929c-85.52,86.373 -88.141,164.731 -82.6,227.962c6.527,74.479 43.09,135.009 103.282,182.038c59.727,46.665 139.25,67.525 212.594,57.175c66.163,-9.336 125.911,-48.153 172.224,-109.175c0.71,-0.936 1.533,-2.873 2.788,-5.404l0.207,-0.395c9.483,-17.183 4.289,-38.763 -11.974,-49.749c-16.263,-10.987 -38.222,-7.75 -50.623,7.462c-0.17,0.209 -0.349,0.411 -0.536,0.606c-0.028,0.029 -0.059,0.049 -0.077,0.073c-32.948,43.413 -75.846,68.633 -128.601,75.824c-52.821,7.2 -100.486,-5.719 -142.955,-38.9c-35.031,-27.371 -57.933,-61.87 -68.784,-103.454c-0.837,-3.207 -0.051,-6.621 2.105,-9.14c2.156,-2.518 5.408,-3.821 8.706,-3.488c0.604,0.061 1.212,0.114 1.826,0.159c10.285,0.108 251.653,2.619 353.859,1.567Zm-357.057,-76.038c-9.322,-0.121 -9.881,-12.004 -9.881,-12.004c7.31,-38.671 25.121,-66.696 55.224,-94.491c36.909,-34.079 80.064,-49.864 129.411,-47.505c49.34,2.358 90.836,22.185 124.418,59.628c8.11,9.042 15.536,18.715 22.275,29.022c8.839,13.521 9.409,30.943 1.47,45.026c-7.926,14.058 -22.947,22.394 -38.873,21.663c-5.851,-0.026 -231.156,-1.056 -276.231,-1.293c-4.613,-0.024 -7.357,-0.04 -7.813,-0.046Zm0.966,-0.043l0.018,0c-0.095,0.009 -0.191,0.017 -0.287,0.023l0.269,-0.023Z" style="fill:#00533a;fill-rule:nonzero"/><path d="M2286.56,1458.5c20.438,-0.21 46.638,-4.132 48.816,-6.141c6.346,-5.853 9.039,-14.175 9.734,-23.832c4.349,-71.943 -17.367,-134.593 -65.155,-187.945c-47.223,-52.721 -104.484,-80.943 -172.023,-84.171c-67.568,-3.23 -147.318,23.313 -192.537,68.928c-85.622,86.373 -88.336,164.731 -82.87,227.963c6.439,74.478 42.93,135.008 103.067,182.037c59.671,46.665 139.17,67.525 212.526,57.175c66.174,-9.336 125.968,-48.153 172.353,-109.175c0.711,-0.936 1.537,-2.873 2.795,-5.404l0.207,-0.395c9.503,-17.183 4.335,-38.763 -11.915,-49.749c-16.25,-10.986 -38.212,-7.75 -50.632,7.462c-0.17,0.209 -0.349,0.411 -0.536,0.606c-0.028,0.03 -0.059,0.049 -0.078,0.073c-32.999,43.413 -75.927,68.633 -128.69,75.824c-52.83,7.2 -100.479,-5.718 -142.909,-38.9c-34.999,-27.371 -57.86,-61.87 -68.662,-103.454c-0.833,-3.207 -0.043,-6.621 2.116,-9.139c2.159,-2.519 5.412,-3.822 8.71,-3.489c0.603,0.061 1.212,0.114 1.826,0.159c10.284,0.108 251.65,2.619 353.857,1.567Zm-356.967,-76.038c-9.322,-0.121 -9.867,-12.004 -9.867,-12.004c7.356,-38.671 25.2,-66.696 55.336,-94.491c36.949,-34.079 80.123,-49.864 129.467,-47.505c49.337,2.359 90.81,22.185 124.348,59.628c8.099,9.042 15.514,18.715 22.241,29.023c8.822,13.52 9.372,30.942 1.416,45.025c-7.942,14.058 -22.973,22.394 -38.898,21.664c-5.851,-0.027 -231.156,-1.057 -276.23,-1.293c-4.613,-0.025 -7.357,-0.041 -7.813,-0.047Zm0.966,-0.043l0.018,0c-0.095,0.01 -0.191,0.017 -0.287,0.023l0.269,-0.023Z" style="fill:#00533a;fill-rule:nonzero"/><path d="M685.194,408.902c-0,106.679 -0,360.333 -0,467.012c-0,10.246 -4.071,20.073 -11.316,27.318c-7.245,7.245 -17.072,11.316 -27.318,11.316c-0.005,-0 -0.009,-0 -0.014,-0c-10.246,-0 -20.073,-4.071 -27.318,-11.316c-7.245,-7.245 -11.316,-17.072 -11.316,-27.318c0,-106.679 0,-360.333 0,-467.012c0,-10.246 4.071,-20.073 11.316,-27.318c7.245,-7.245 17.072,-11.316 27.318,-11.316c0.005,0 0.009,0 0.014,0c10.246,0 20.073,4.071 27.318,11.316c7.245,7.245 11.316,17.072 11.316,27.318Z" style="fill:#00533a"/><path d="M76.214,822.477c-0,-22.858 -1.903,-609.677 -1.903,-781.772c-0,-10.796 4.288,-21.149 11.922,-28.783c7.634,-7.633 17.987,-11.922 28.783,-11.922c0.698,0 1.396,0 2.093,0c22.404,-0 40.596,18.104 40.705,40.507c0.37,73.72 1.361,207.827 3.779,261.22c0.516,11.399 1.156,19.347 1.801,22.649c0.586,2.994 1.675,4.757 2.292,5.574c5.937,7.864 14.912,12.029 25.423,11.791c12.853,-0.292 28.694,-7.709 42.203,-24.255c45.799,-56.093 118,-142.269 153.581,-184.633c9.957,-11.857 26.366,-16.046 40.787,-10.412c0.17,0.066 0.336,0.131 0.502,0.195c10.566,4.127 18.578,12.978 21.635,23.901c3.057,10.923 0.803,22.647 -6.085,31.658c-39.24,52.005 -99.52,131.104 -126.731,162.394c-2.521,2.898 -3.151,6.988 -1.618,10.51c1.532,3.523 4.953,5.85 8.792,5.982c62.352,2.144 115.365,23.876 158.886,65.579c45.684,43.775 68.319,97.87 68.319,162.121c-0,0.058 1.448,249.045 1.448,249.045c0,41.758 15.094,77.064 45.015,105.966c29.791,28.776 66.164,43.341 109.265,43.341l5.278,0c12.637,0 23.248,3.093 31.251,10.824c7.876,7.607 11.06,17.695 11.06,29.707c0,11.676 -2.953,21.439 -10.608,28.639c-8.117,7.634 -18.888,10.617 -31.703,10.617c0,0 -5.278,0 -5.278,0c-67.565,0 -124.255,-21.644 -169.788,-65.626c-45.404,-43.857 -67.794,-98.447 -67.794,-163.526c-0,0 -0.001,-60.044 -0.001,-60.044c0,-0.049 -0,-0.097 -0.001,-0.146l-2.768,-189.087c0.001,-40.478 -14.95,-75.42 -45.013,-104.459c-29.929,-28.91 -65.918,-43.341 -107.946,-43.341c-42.969,-0 -79.204,14.279 -108.902,42.356c-30.111,28.466 -45.379,63.654 -45.379,105.734l0,237.696c0,11.045 -4.387,21.638 -12.198,29.449c-7.81,7.81 -18.403,12.198 -29.449,12.198c-0.002,-0 -0.005,-0 -0.008,-0c-23.001,-0 -41.647,-18.646 -41.647,-41.647Z" style="fill:#00533a;fill-rule:nonzero"/><path d="M982.751,1194.66l0,466.93c0,3.823 0.602,7.584 1.752,11.152c0.039,0.122 0.076,0.244 0.112,0.367c1.646,5.692 4.506,10.655 8.856,14.791c3.025,2.877 6.505,5.037 10.398,6.563c0.137,0.054 0.273,0.11 0.409,0.169c4.362,1.888 9.097,2.89 13.935,2.89l1.333,-0.024l2.892,0.024c11.577,0 19.007,-6.393 25.34,-13.297c7.583,-8.266 6.241,-19.209 6.241,-31.473c0,-0 0.96,0.013 0.001,-275.002c-0.074,-21.047 14.547,-72.065 42.255,-97.24c13.174,-11.969 33.197,-30.081 58.154,-36.702c35.673,-9.465 52.233,-8.968 76.725,-5.036c9.42,1.513 17.508,3.378 24.611,3.941c4.361,0.346 8.19,0.347 11.54,-1.828c8.128,-5.275 11.618,-14.699 13.725,-26.612c2.014,-11.383 0.365,-21.608 -6.159,-30.481c-6.046,-8.223 -14.492,-12.008 -25.586,-14.01c-53.791,-9.703 -122.582,-2.25 -174.696,34.519c-3.889,2.743 -8.988,3.073 -13.198,0.853c-4.21,-2.22 -6.818,-6.614 -6.75,-11.373c0.143,-10.072 -4.535,-18.661 -10.591,-24.776c-6.682,-6.747 -16.375,-10.278 -25.824,-10.278c-0.004,0 -0.009,0 -0.013,0c-9.39,0 -18.392,3.776 -25.032,10.481c-6.684,6.749 -10.43,15.907 -10.43,25.452Z" style="fill:#00533a;stroke:#00533a;stroke-width:.83px"/><path d="M2409.3,1196.77l-0,466.931c-0,3.823 0.601,7.584 1.751,11.152c0.039,0.122 0.077,0.244 0.112,0.367c1.646,5.692 4.507,10.655 8.857,14.791c3.025,2.877 6.504,5.036 10.397,6.563c0.138,0.054 0.274,0.11 0.409,0.169c4.362,1.888 9.097,2.89 13.935,2.89l1.333,-0.025l2.892,0.025c11.577,0 19.007,-6.393 25.34,-13.297c7.583,-8.266 6.242,-19.209 6.242,-31.473c-0,-0 0.959,0.013 0,-275.002c-0.073,-21.048 14.547,-72.065 42.256,-97.24c13.173,-11.969 33.197,-30.081 58.154,-36.703c35.672,-9.464 52.232,-8.967 76.724,-5.035c9.42,1.512 17.508,3.377 24.611,3.941c4.361,0.346 8.19,0.346 11.541,-1.828c8.128,-5.276 11.617,-14.699 13.725,-26.612c2.013,-11.383 0.364,-21.609 -6.16,-30.481c-6.046,-8.223 -14.491,-12.008 -25.586,-14.01c-53.791,-9.703 -122.581,-2.25 -174.696,34.518c-3.888,2.744 -8.988,3.074 -13.197,0.854c-4.21,-2.22 -6.818,-6.615 -6.751,-11.373c0.144,-10.072 -4.535,-18.661 -10.59,-24.776c-6.682,-6.747 -16.375,-10.278 -25.824,-10.278c-0.005,-0 -0.009,-0 -0.014,-0c-9.39,-0 -18.391,3.776 -25.031,10.481c-6.684,6.749 -10.43,15.907 -10.43,25.451Z" style="fill:#00533a;stroke:#00533a;stroke-width:.83px"/><path d="M2997.48,1211.96c-0.067,-1.385 -0.044,-2.774 0.065,-4.159c1.117,-14.201 -7.819,-27.224 -20.72,-30.316c-26.826,-5.74 -56.681,-11.03 -69.065,-12.321c-30.007,-3.128 -66.88,4.65 -87.284,13.391c-23.072,9.884 -42.955,23.784 -55.762,42.834c-13.171,19.592 -21.556,43.186 -23.812,71.868c-2.437,30.991 6.445,56.9 20.169,78.267c14.32,22.295 24.983,34.971 63.796,51.932c-0,-0 55.296,23.77 55.428,23.827c22.644,9.86 39.7,18.894 51.33,26.785c16.533,11.22 27.107,23.252 33.123,34.689c6.952,13.216 10.118,28.149 8.797,44.939c-2.411,30.659 -17.36,53.741 -45.662,68.686c-20.12,10.625 -51.145,16.074 -93.513,12.742c-30.892,-2.43 -56.627,-6.754 -82.177,-13.566c-8.101,-1.998 -16.658,-0.225 -23.42,4.807c-6.912,5.144 -11.258,13.143 -11.944,21.856l-0.104,2.423c-1.098,13.964 7.383,26.85 20.471,30.725c6.433,1.899 13.112,3.694 20.038,5.387c24.671,6.032 48.176,9.952 70.523,11.71c41.985,3.302 78.635,-0.333 109.878,-11.607c28.529,-10.295 51.115,-26.155 67.387,-48.114c16.435,-22.179 25.564,-49.118 28.038,-80.583c2.879,-36.598 -3.523,-67.076 -20.943,-91.008c-18.66,-25.636 -47.065,-45.922 -84.495,-61.861l-45.486,-19.655c-16.496,-7.235 -28.653,-14.264 -37.232,-19.934c-11.557,-7.638 -28.606,-25 -36.934,-45.83c-6.043,-15.112 -7.603,-31.892 -0.685,-48.295c18.089,-42.891 54.111,-52.333 88.641,-49.882c30.131,2.138 58.732,13.933 68.454,16.157c7.743,1.398 15.715,-0.63 21.98,-5.55c6.297,-4.946 10.3,-12.337 11.12,-20.344Z" style="fill:#00533a;fill-rule:nonzero;stroke:#00533a;stroke-width:3.81px;stroke-miterlimit:2"/><path d="M433.072,1073.02c0.096,-0.524 0.227,-1.044 0.392,-1.557c6.75,-21.073 -3.625,-44.058 -23.669,-51.38c-9.708,-3.587 -19.534,-6.717 -29.477,-9.39c-25.489,-6.853 -55.618,-10.22 -90.375,-10.22c-44.288,-0 -84.201,9.031 -119.708,27.238c-35.631,18.272 -66.088,43.133 -91.375,74.577c-25.476,31.679 -44.934,68.728 -58.444,111.109c-13.626,42.744 -20.416,88.298 -20.416,136.656c-0,51.882 6.783,99.447 20.427,142.683c13.504,42.79 32.553,79.615 57.245,110.424c24.433,30.485 53.822,54.205 88.181,71.141c34.357,16.936 72.929,25.331 115.684,25.331c37.892,0 71.537,-4.234 100.923,-12.81c13.473,-3.933 26.461,-8.494 38.865,-13.467c18.744,-7.81 28.246,-29.532 22.328,-49.607c-0.212,-0.445 -0.396,-0.905 -0.553,-1.377c-3.42,-10.295 -10.638,-18.726 -20.082,-23.259c-9.217,-4.424 -19.753,-4.711 -29.031,-0.849c-7.935,3.418 -15.683,6.367 -23.244,8.852c-22.711,7.463 -50.037,11.286 -82.001,11.286c-31.15,0 -59.255,-7.259 -84.348,-21.654c-24.749,-14.197 -46.116,-33.804 -64.038,-58.887c-17.587,-24.613 -31.232,-53.156 -40.862,-85.664c-9.534,-32.179 -14.331,-67.112 -14.331,-104.807c0,-41.41 5.248,-78.21 15.619,-110.418c10.526,-32.688 25.112,-60.441 43.638,-83.323c18.844,-23.274 41.342,-41.068 67.467,-53.418c26.097,-12.336 54.113,-18.526 84.06,-18.526c26.112,-0 49.691,3.079 70.749,9.151c6.209,1.791 12.563,3.885 18.739,6.263c9.447,3.363 19.779,2.632 28.718,-2.014c8.774,-4.559 15.501,-12.487 18.919,-22.084Zm24.745,557.722l0.004,0.038c-1.134,0.308 -1.983,0.418 -2.616,0.429c-0.873,0.015 -1.334,-0.157 -1.564,-0.259c1.387,0.162 2.799,0.095 4.176,-0.208Zm-22.211,-547.548c-0.626,-0.779 -1.1,-1.531 -1.462,-2.254c-0.402,-0.805 -0.665,-1.573 -0.838,-2.3c0.442,1.637 1.216,3.189 2.3,4.554l0.221,0.271c-0.075,-0.09 -0.149,-0.18 -0.221,-0.271Z" style="fill:#00533a;fill-rule:nonzero"/><path d="M831.856,1196.7c3.481,2.206 7.819,2.578 11.625,0.997c3.807,-1.58 6.605,-4.915 7.5,-8.939c1.461,-6.567 4.786,-12.642 9.652,-17.471c6.749,-6.697 15.905,-10.452 25.449,-10.452c0.004,-0 0.009,-0 0.013,-0c9.544,-0 18.7,3.755 25.449,10.452c6.714,6.662 10.492,15.695 10.492,25.117c0,105.862 0,357.572 0,463.434c0,9.421 -3.778,18.454 -10.492,25.116c-6.749,6.697 -15.905,10.452 -25.449,10.452c-0.004,0 -0.009,0 -0.013,0c-9.544,0 -18.7,-3.755 -25.449,-10.452c-3.385,-3.359 -6.024,-7.321 -7.809,-11.632c-1.372,-3.314 -4.086,-5.891 -7.468,-7.088c-3.382,-1.197 -7.113,-0.903 -10.265,0.81c-24.327,13.217 -50.216,21.983 -77.169,25.79c-72.683,10.267 -151.488,-10.429 -210.675,-56.721c-59.616,-46.626 -95.86,-106.62 -102.325,-180.461c-5.493,-62.746 -2.893,-140.5 81.882,-226.209c44.709,-45.202 123.641,-71.452 190.531,-68.251c42.192,2.019 80.359,13.862 114.521,35.508Zm18.285,108.096c-0,-2.926 -1.014,-5.762 -2.871,-8.025c-2.218,-2.704 -4.493,-5.358 -6.824,-7.96c-34.059,-38.013 -76.146,-58.134 -126.186,-60.528c-50.049,-2.395 -93.82,13.624 -131.254,48.223c-30.284,27.992 -46.971,62.307 -55.775,95.031c-8.722,32.419 -6.544,67.595 0.108,100.407c7.06,34.817 34.158,77.689 69.828,105.586c43.035,33.659 91.337,46.759 144.862,39.455c40.376,-5.509 75.032,-21.496 103.988,-47.925c2.627,-2.397 4.124,-5.79 4.124,-9.346l-0,-254.918Z" style="fill:#00533a;fill-rule:nonzero;stroke:#00533a;stroke-width:.83px;stroke-miterlimit:2"/><path d="M3253.7,440.487c-1.745,0.053 -3.546,0.073 -5.399,0.073c-0,-0 -284.518,-0 -284.518,-0c-25.018,-0 -45.386,20.544 -45.386,45.992c-0,-0 -0,194.123 -0,194.123c-0,41.469 14.252,76.467 42.43,105.129c28.241,28.727 62.734,43.232 103.593,43.232c41.12,-0 75.499,-14.674 103.315,-43.584c27.492,-28.573 41.466,-63.437 41.466,-104.777c0,0 0,-11.374 0,-11.374c0,-11.118 3.227,-20.498 10.576,-27.782c7.604,-7.536 17.215,-10.9 28.524,-10.9c10.991,-0 20.282,3.155 27.483,10.48c7.264,7.389 10.374,16.924 10.374,28.202c0,0 0,11.374 0,11.374c0,63.857 -21.156,117.808 -63.927,161.665c-42.61,43.692 -95.271,65.325 -157.811,65.325c-63.347,-0 -116.491,-21.399 -159.182,-64.824c-42.753,-43.489 -63.798,-97.634 -63.798,-162.166c-0,0 -0,-200.472 -0,-200.472c-0,-0.555 -0.046,-1.109 -0.137,-1.657c-3.614,-21.792 -22.306,-38.327 -44.756,-38.327c0.097,0.001 -145.47,-1.391 -145.47,-1.391c-0.033,-0 -0.065,-0 -0.097,-0c-60.125,-0 -113.977,3.559 -163.138,51.934c-40.649,39.999 -63.418,89.667 -60.869,149.008c2.204,51.314 34.518,110.239 65.883,137.616c13.392,11.689 44.845,33.704 77.672,42.378c41.43,10.947 62.601,5.543 72.605,5.524c0.885,-0.001 1.768,-0.005 2.647,-0.009c22.396,-0.108 40.646,17.959 40.765,40.361c0.004,0.427 0.006,0.794 0.008,1.161c0.118,22.224 -17.665,40.408 -39.886,40.787c-10.78,0.189 -21.917,0.376 -31.877,0.527c-18.262,0.276 -49.571,-6.166 -69.788,-11.832c-43.946,-12.316 -88.185,-40.672 -114.789,-64.502c-58.779,-52.649 -84.581,-120.437 -84.581,-196.565c-0,-76.952 26.602,-145.857 85.07,-198.584c58.787,-53.015 133.809,-75.111 220.191,-75.111c0.054,-0 145.709,-0.784 145.709,-0.784c22.235,-0 40.821,-16.301 44.622,-37.861c0.102,-0.577 0.153,-1.162 0.154,-1.749l0.058,-70.175l76.961,-0l-0,64.133c-0,25.448 20.368,45.992 45.386,45.992c-0,0 284.518,0 284.518,0c1.849,0 3.65,0.07 5.399,0.217l-0,79.193Zm9.961,-91.651c0,-5.253 2.087,-10.291 5.802,-14.006c3.714,-3.714 8.752,-5.801 14.005,-5.801c0.005,-0 0.011,-0 0.016,-0c5.253,-0 10.291,2.087 14.005,5.801c3.715,3.715 5.802,8.753 5.802,14.006c-0,25.3 -0,68.83 -0,94.13c-0,5.253 -2.087,10.291 -5.802,14.005c-3.714,3.715 -8.752,5.802 -14.005,5.802c-0.005,-0 -0.011,-0 -0.016,-0c-5.253,-0 -10.291,-2.087 -14.005,-5.802c-3.715,-3.714 -5.802,-8.752 -5.802,-14.005l0,-94.13Zm-337.202,-108.008l-94.13,0c-5.253,0 -10.291,-2.087 -14.006,-5.801c-3.714,-3.715 -5.801,-8.753 -5.801,-14.006c0,-0.005 0,-0.01 0,-0.015c0,-5.254 2.087,-10.291 5.801,-14.006c3.715,-3.714 8.753,-5.801 14.006,-5.801c25.3,-0 68.83,-0 94.13,-0c5.253,-0 10.291,2.087 14.006,5.801c3.714,3.715 5.801,8.752 5.801,14.006c-0,0.005 -0,0.01 -0,0.015c-0,5.253 -2.087,10.291 -5.801,14.006c-3.715,3.714 -8.753,5.801 -14.006,5.801Z" style="fill:#22a07f"/></g></svg>